<?xml version="1.0" encoding="UTF-8" standalone="no"?>
<!-- Created with Inkscape (http://www.inkscape.org/) -->

<svg
   xmlns:dc="http://purl.org/dc/elements/1.1/"
   xmlns:cc="http://creativecommons.org/ns#"
   xmlns:rdf="http://www.w3.org/1999/02/22-rdf-syntax-ns#"
   xmlns:svg="http://www.w3.org/2000/svg"
   xmlns="http://www.w3.org/2000/svg"
   version="1.1"
   width="251.5874"
   height="364.00583"
   id="svg2">
  <defs
     id="defs4" />
  <metadata
     id="metadata7">
    <rdf:RDF>
      <cc:Work
         rdf:about="">
        <dc:format>image/svg+xml</dc:format>
        <dc:type
           rdf:resource="http://purl.org/dc/dcmitype/StillImage" />
        <dc:title></dc:title>
      </cc:Work>
    </rdf:RDF>
  </metadata>
  <g
     transform="translate(-216.78535,-154.3947)"
     id="layer1">
    <path
       d="m 341.18485,435.50775 c 1.73866,0.95196 3.2344,0.52827 5.28007,0.0446 1.48557,-46.26264 42.3449,-68.35383 121.40783,-79.06723 l -0.0867,-26.69906 c -85,30.35715 -156.37364,28.2157 -249.87307,0.62759 -0.19594,7.48457 -0.62763,26.18346 -0.62763,26.18346 89.06025,11.77248 119.2836,33.26094 123.89947,78.91062 z"
       id="path2985"
       style="fill:#000000;fill-opacity:1;stroke:#000000;stroke-width:1px;stroke-linecap:butt;stroke-linejoin:miter;stroke-opacity:1" />
    <path
       d="m 341.20083,435.98703 c 0,53.57141 -40.72129,79.78378 -84.4713,81.5695 43.75,4.10714 85.15692,-29.02421 87.29976,-74.7385 -0.18031,45.88629 49.51661,78.13136 89.33804,74.73849 -39.10715,-4.28571 -88.52679,-27.34375 -86.91966,-81.45089 z"
       id="path2987"
       style="fill:#000000;fill-opacity:1;stroke:#000000;stroke-width:1px;stroke-linecap:butt;stroke-linejoin:miter;stroke-opacity:1" />
    <path
       d="m 342.46674,281.03892 -1.13725,-126.26908 3.12745,1e-5 z"
       id="path3798"
       style="fill:#000000;fill-opacity:1;stroke:#000000;stroke-width:0.75027531px;stroke-linecap:butt;stroke-linejoin:miter;stroke-opacity:1" />
    <path
       d="m 361.51937,321.61969 c 0,0 10.7521,-7.19194 15.29779,-11.99016 l -5.03075,-5.16934 c -4.59264,5.74602 -10.26704,17.1595 -10.26704,17.1595 z"
       id="path3776-6"
       style="fill:#000000;fill-opacity:1;stroke:#000000;stroke-width:0.81859708px;stroke-linecap:butt;stroke-linejoin:miter;stroke-opacity:1" />
    <path
       d="m 321.5538,322.26789 c 0,0 -10.7521,-7.19194 -15.29779,-11.99016 l 5.03075,-5.16934 c 4.59264,5.74602 10.26704,17.1595 10.26704,17.1595 z"
       id="path3776-6-2"
       style="fill:#000000;fill-opacity:1;stroke:#000000;stroke-width:0.81859708px;stroke-linecap:butt;stroke-linejoin:miter;stroke-opacity:1" />
  </g>
</svg>
